/* XPM */
static char * chromium_xpm[] = {
"24 24 189 2",
"  	c None",
". 	c #3F6ED5",
"+ 	c #3D6ED5",
"@ 	c #3C6DD6",
"# 	c #3B6CD5",
"$ 	c #3C6DD4",
"% 	c #3F6ED6",
"& 	c #3B6DD6",
"* 	c #3A6CD7",
"= 	c #396CD7",
"- 	c #396BD7",
"; 	c #386BD7",
"> 	c #386BD6",
", 	c #3A6BD3",
"' 	c #3D6ED8",
") 	c #3B6DD7",
"! 	c #376AD7",
"~ 	c #386AD5",
"{ 	c #3C6DD7",
"] 	c #3B6DD8",
"^ 	c #3669D7",
"/ 	c #3669D6",
"( 	c #3B6BD5",
"_ 	c #3469D6",
": 	c #3F6DD2",
"< 	c #3A6AD4",
"[ 	c #3A6CD6",
"} 	c #3B6CD8",
"| 	c #3569D6",
"1 	c #3669D3",
"2 	c #649AF4",
"3 	c #5586DE",
"4 	c #3968CE",
"5 	c #396AD6",
"6 	c #3A6BD6",
"7 	c #4B75D7",
"8 	c #829BDD",
"9 	c #A9B7E1",
"0 	c #ABB7E0",
"a 	c #8DA1D9",
"b 	c #6383D2",
"c 	c #5A7ED2",
"d 	c #5B7FD3",
"e 	c #5D80D3",
"f 	c #5F82D4",
"g 	c #6184D5",
"h 	c #6386D6",
"i 	c #6689D7",
"j 	c #7091D8",
"k 	c #649AF6",
"l 	c #6399F3",
"m 	c #426FC7",
"n 	c #3868D0",
"o 	c #396BD6",
"p 	c #839BDD",
"q 	c #D2DBEC",
"r 	c #C8D5F1",
"s 	c #B5C7F2",
"t 	c #C8D6F1",
"u 	c #D7DFED",
"v 	c #A1B4E2",
"w 	c #7F9DE1",
"x 	c #82A1E4",
"y 	c #86A6E7",
"z 	c #8BAAEA",
"A 	c #8DADEB",
"B 	c #8FAFEC",
"C 	c #91B1ED",
"D 	c #649BF6",
"E 	c #5A8CE3",
"F 	c #3865C2",
"G 	c #3869D3",
"H 	c #839ADD",
"I 	c #D6DFF0",
"J 	c #8BADF3",
"K 	c #4F8BF4",
"L 	c #4888F4",
"M 	c #4788F4",
"N 	c #4E8BF4",
"O 	c #D9E2F1",
"P 	c #ACC2EE",
"Q 	c #93B2F0",
"R 	c #94B4F1",
"S 	c #95B5F2",
"T 	c #96B7F3",
"U 	c #98B9F4",
"V 	c #99BAF4",
"W 	c #639AF6",
"X 	c #6399F4",
"Y 	c #4876CD",
"Z 	c #3664C6",
"` 	c #4A73D5",
" .	c #4688F4",
"..	c #4787F4",
"+.	c #DBE3F1",
"@.	c #9EBCF3",
"#.	c #9BBBF5",
"$.	c #9CBDF6",
"%.	c #9DBEF7",
"&.	c #9FBFF8",
"*.	c #A1C0F9",
"=.	c #A1C2F9",
"-.	c #629AF6",
";.	c #5D92EC",
">.	c #3965C2",
",.	c #8198D6",
"'.	c #4687F4",
").	c #C9D7F2",
"!.	c #B8CEF5",
"~.	c #A1C1F9",
"{.	c #A1C2FA",
"].	c #A2C3FA",
"^.	c #A2C2FA",
"/.	c #6198F5",
"(.	c #629AF5",
"_.	c #4E7FD8",
":.	c #A9B5DB",
"<.	c #C8D8F4",
"[.	c #A0C2F8",
"}.	c #6198F4",
"|.	c #6096F1",
"1.	c #ABB8DE",
"2.	c #B5C7F3",
"3.	c #9FC0F9",
"4.	c #6299F6",
"5.	c #8EAEEC",
"6.	c #C7D6F1",
"7.	c #4587F4",
"8.	c #4D8BF4",
"9.	c #BAD0F6",
"0.	c #A0C1F9",
"a.	c #6299F5",
"b.	c #6C9EF5",
"c.	c #D5DFF1",
"d.	c #8CADF3",
"e.	c #A7C5F9",
"f.	c #A0C1F8",
"g.	c #6199F6",
"h.	c #93B5F4",
"i.	c #D7E1F1",
"j.	c #D8E1F0",
"k.	c #B0C8F1",
"l.	c #6098F6",
"m.	c #94B5F4",
"n.	c #D5E0F2",
"o.	c #C8D6F2",
"p.	c #D3DDEE",
"q.	c #9EB6E6",
"r.	c #6198F3",
"s.	c #6C9FF6",
"t.	c #94B6F4",
"u.	c #B2C7F4",
"v.	c #B1C6F3",
"w.	c #90AFE9",
"x.	c #6792DF",
"y.	c #96B8F2",
"z.	c #9FBFF7",
"A.	c #6098F5",
"B.	c #5F96F3",
"C.	c #588BE4",
"D.	c #7DA3E7",
"E.	c #6098F4",
"F.	c #5C92EF",
"G.	c #6290E2",
"H.	c #9BBCF5",
"I.	c #A0C0F8",
"J.	c #6097F4",
"K.	c #5E96F4",
"L.	c #598EE9",
"M.	c #87ABEC",
"N.	c #5F96F4",
"O.	c #5F98F6",
"P.	c #5B93F1",
"Q.	c #6B98E8",
"R.	c #9EBFF8",
"S.	c #9FC0F8",
"T.	c #5C94F1",
"U.	c #5E97F4",
"V.	c #5D95F4",
"W.	c #5B8FEC",
"X.	c #90B3F1",
"Y.	c #A0C0F7",
"Z.	c #9CBEF5",
"`.	c #5D95F2",
" +	c #5990EC",
".+	c #7099E5",
"++	c #9BBCF4",
"@+	c #9EBEF4",
"#+	c #9FBFF6",
"                  . + @ @ # $                   ",
"            % & * = = - - ; ; ; > ,             ",
"          ' ) * * = = - - ; ; ; ! ! ~           ",
"        { ] ] * * = = - - - ; ; ! ! ^ /         ",
"      ( ) ] ] * * = = - - ; ; ; ! ! ^ ^ _       ",
"    : < [ } * * * = = - - ; ; ! ! ^ ^ / | 1     ",
"  2 3 4 5 6 * * * 7 8 9 0 a b c d e f g h i j   ",
"  k l m n 5 o ) p q r s s t u v w x y z A B C   ",
"  D D E F G o H I J K L M N J O P Q R S T U V   ",
"D W W X Y Z ` q J L M  . . ...J +.@.#.$.%.&.*.=.",
"-.W W W ;.>.,.r K M  . . .'.'.N ).!.~.{.].^.^.{.",
"/.-.-.-.(._.:.s L  . . .'.'.'.'.s <.].].^.^.^.[.",
"}.-.-.-.-.|.1.s M  . .'.'.'.'.'.2.<.].].^.^.{.3.",
"/.4.4.-.4.4.5.6.N  .'.'.'.'.7.8.).9.].^.^.^.{.0.",
"a.4.4.4.4.4.b.c.J ..'.'.'.7.'.d.+.e.].^.^.{.{.f.",
"  g.4.4.4.g.g.h.i.J N '.'.8.d.j.k.].^.^.^.{.{.  ",
"  l.g.g.g.g.g.-.m.n.o.s 2.o.p.q.=.^.^.^.{.{.~.  ",
"  r.g.g.g.g.g.g.g.s.t.u.v.w.x.y.^.^.^.{.{.{.z.  ",
"    A.g.g.g.g.g.g.g.l.l.B.C.D.~.^.^.{.{.{.0.    ",
"      E.g.g.g.l.l.l.l.l.F.G.H.^.^.{.{.{.I.      ",
"        J.l.l.l.l.l.l.K.L.M.^.^.{.{.{.I.        ",
"          N.l.l.O.O.O.P.Q.R.{.{.{.{.S.          ",
"            T.U.O.O.V.W.X.{.{.{.Y.Z.            ",
"                  `. +.+++@+#+                  "};
