/* XPM */
static char * paint_xpm[] = {
"24 24 261 2",
"  	c None",
". 	c #C5891E",
"+ 	c #CB973A",
"@ 	c #D2A24F",
"# 	c #D6AA5D",
"$ 	c #DAAF66",
"% 	c #D6A95A",
"& 	c #D09E45",
"* 	c #C78B25",
"= 	c #CE983C",
"- 	c #E3C488",
"; 	c #E9D098",
"> 	c #E6CC8C",
", 	c #E4C781",
"' 	c #E2C275",
") 	c #E1C071",
"! 	c #E2C479",
"~ 	c #E5CA85",
"{ 	c #E9D198",
"] 	c #E5C98D",
"^ 	c #D5A757",
"/ 	c #C6861E",
"( 	c #DDB975",
"_ 	c #E8CF92",
": 	c #DEB962",
"< 	c #DAB053",
"[ 	c #CE9B38",
"} 	c #CB922C",
"| 	c #CF9B38",
"1 	c #DAB254",
"2 	c #DDB85D",
"3 	c #DDB95E",
"4 	c #E5C881",
"5 	c #E8D098",
"6 	c #D2A04C",
"7 	c #D6A95C",
"8 	c #E6CA87",
"9 	c #DCB65A",
"0 	c #D5A847",
"a 	c #C4861C",
"b 	c #CC9333",
"c 	c #D5A94B",
"d 	c #DDB95F",
"e 	c #E7CE8F",
"f 	c #DFBB79",
"g 	c #C78622",
"h 	c #E7CD95",
"i 	c #DCB75C",
"j 	c #C88B25",
"k 	c #DEBB60",
"l 	c #DEBA60",
"m 	c #E3C57A",
"n 	c #E3C487",
"o 	c #C6871D",
"p 	c #C4851D",
"q 	c #E8CF98",
"r 	c #DDB85C",
"s 	c #CB932C",
"t 	c #CB932D",
"u 	c #DFBC62",
"v 	c #DEBC62",
"w 	c #DEBB61",
"x 	c #E4C77C",
"y 	c #E0BF7D",
"z 	c #E4C68A",
"A 	c #DFBE69",
"B 	c #DDBA5F",
"C 	c #DDB75C",
"D 	c #CA922B",
"E 	c #C88E27",
"F 	c #CF9B42",
"G 	c #C6881F",
"H 	c #DEBA5F",
"I 	c #DFBD63",
"J 	c #DFBD64",
"K 	c #DABA65",
"L 	c #717D7D",
"M 	c #3E608C",
"N 	c #3E608B",
"O 	c #727D7C",
"P 	c #E4CC8E",
"Q 	c #D29F4C",
"R 	c #CB8E2F",
"S 	c #E8CD95",
"T 	c #E8D092",
"U 	c #E3C577",
"V 	c #DEBA61",
"W 	c #DBB457",
"X 	c #DFBE64",
"Y 	c #E0BE65",
"Z 	c #E0BF65",
"` 	c #727E7D",
" .	c #4D76A8",
"..	c #729ECF",
"+.	c #4C75A8",
"@.	c #747E7D",
"#.	c #E9D29B",
"$.	c #C88A21",
"%.	c #CD9738",
"&.	c #D9B065",
"*.	c #E7CC91",
"=.	c #E7CE8A",
"-.	c #E0BF66",
";.	c #E0C066",
">.	c #E0C067",
",.	c #355A89",
"'.	c #719FCE",
").	c #729FCF",
"!.	c #719ECF",
"~.	c #36598A",
"{.	c #E5CB82",
"].	c #D5A658",
"^.	c #E6CB8F",
"/.	c #E1C16B",
"(.	c #E1C068",
"_.	c #E1C168",
":.	c #E1C169",
"<.	c #365A8A",
"[.	c #E5CA8F",
"}.	c #E3C788",
"|.	c #E2C46F",
"1.	c #E1C269",
"2.	c #E1C26A",
"3.	c #E2C26A",
"4.	c #E2C36A",
"5.	c #748080",
"6.	c #4D76A7",
"7.	c #4C75A6",
"8.	c #75807D",
"9.	c #EAD499",
"0.	c #C78A25",
"a.	c #C4841D",
"b.	c #EAD29A",
"c.	c #E2C36B",
"d.	c #E2C46C",
"e.	c #DDC16D",
"f.	c #738081",
"g.	c #3F618C",
"h.	c #747F7F",
"i.	c #DDBF6A",
"j.	c #E8D08E",
"k.	c #CF9940",
"l.	c #CB902D",
"m.	c #ECD79F",
"n.	c #E3C56D",
"o.	c #E3C56E",
"p.	c #E6CB80",
"q.	c #D6A859",
"r.	c #D7AE5F",
"s.	c #E7CE86",
"t.	c #E3C46D",
"u.	c #E3C66E",
"v.	c #E3C66F",
"w.	c #E4C76F",
"x.	c #E5CA7C",
"y.	c #D8AC5F",
"z.	c #E8CD92",
"A.	c #E3C56F",
"B.	c #E4C770",
"C.	c #E4C771",
"D.	c #E4C871",
"E.	c #E0C76E",
"F.	c #8CAF32",
"G.	c #63A614",
"H.	c #8DAF31",
"I.	c #E0C46A",
"J.	c #E6CC80",
"K.	c #D7A95A",
"L.	c #C68820",
"M.	c #ECD8A0",
"N.	c #E0BF6A",
"O.	c #C2512E",
"P.	c #B31A11",
"Q.	c #C25430",
"R.	c #E3C46F",
"S.	c #E5C973",
"T.	c #8DB033",
"U.	c #65B612",
"V.	c #73D216",
"W.	c #64B511",
"X.	c #8EAE32",
"Y.	c #E2C46D",
"Z.	c #E8D08B",
"`.	c #D29F49",
" +	c #CC9638",
".+	c #EBD699",
"++	c #C2532F",
"@+	c #C91A17",
"#+	c #EF2929",
"$+	c #C91917",
"%+	c #C25632",
"&+	c #E5CA74",
"*+	c #5DA210",
"=+	c #73D116",
"-+	c #EAD498",
";+	c #C78C27",
">+	c #D3A24E",
",+	c #E8D18C",
"'+	c #AF130C",
")+	c #EE2929",
"!+	c #AF140D",
"~+	c #E6CC76",
"{+	c #E4C772",
"]+	c #E3C586",
"^+	c #E9D18C",
"/+	c #AE130C",
"(+	c #E6CD77",
"_+	c #E7CD78",
":+	c #8EB235",
"<+	c #64B612",
"[+	c #8FB033",
"}+	c #EBD494",
"|+	c #CF983D",
"1+	c #CF983B",
"2+	c #EBD597",
"3+	c #C45834",
"4+	c #E7CE78",
"5+	c #E2CB74",
"6+	c #8DB134",
"7+	c #8EB033",
"8+	c #E5CF83",
"9+	c #DDB972",
"0+	c #C7861D",
"a+	c #E9D197",
"b+	c #E2C271",
"c+	c #C25330",
"d+	c #B31B11",
"e+	c #C25532",
"f+	c #E5C672",
"g+	c #E6CC77",
"h+	c #E6CB75",
"i+	c #E5C972",
"j+	c #E9D189",
"k+	c #E0BE7B",
"l+	c #CC9232",
"m+	c #EBD59D",
"n+	c #E6CC7E",
"o+	c #E4C872",
"p+	c #E5CB75",
"q+	c #E7CC7C",
"r+	c #DAB265",
"s+	c #C98E28",
"t+	c #DEB971",
"u+	c #EAD397",
"v+	c #EBD797",
"w+	c #E9D18A",
"x+	c #E8D085",
"y+	c #E8CF83",
"z+	c #E9D38A",
"A+	c #EBD694",
"B+	c #EAD396",
"C+	c #DFBA76",
"D+	c #CA912E",
"E+	c #C78920",
"F+	c #CD9737",
"G+	c #D4A54F",
"H+	c #D7AC5B",
"I+	c #D8AD5E",
"J+	c #D5A652",
"K+	c #CF993C",
"L+	c #C68821",
"            . + @ # $ % & *                     ",
"        = - ; > , ' ) ! ~ { ] ^ /               ",
"      ( _ : < [ } | 1 2 2 2 3 4 5 6             ",
"    7 8 9 0 a       b c 3 d d d d e f g         ",
"    h i i j           j k k k k k l m n o       ",
"  p q r 2 s           t u u u u u v w x y       ",
"    z A B C D E F G t H I J J K L M N O P Q     ",
"    R S T U J V W w X Y Z Z Z `  .....+.@.#.$.  ",
"        %.&.*.=.Y Z -.;.>.>.>.,.'.).).!.~.{.].  ",
"              ^./.>.(._._.:.:.<.'.).).!.<.>.[.  ",
"              }.|.:.1.2.3.4.4.5.6.....7.8.>.9.0.",
"            a.b.1.3.c.c.d.d.d.e.f.g.g.h.i._.j.k.",
"            l.m.4.c.d.n.n.o.o.o.n.n.d.c.4.1.p.q.",
"            r.s.d.t.o.u.v.v.w.v.v.u.o.t.d.c.x.y.",
"            z.A.n.o.v.B.C.D.D.E.F.G.G.H.I.d.J.K.",
"          L.M.N.O.P.P.Q.R.S.S.T.U.V.V.W.X.Y.Z.`.",
"           +.+++@+#+#+$+%+&+&+*+=+V.V.V.*+n.-+;+",
"          >+,+'+)+#+#+)+!+~+~+*+=+V.V.V.*+{+]+  ",
"          >+^+/+)+#+#+)+!+(+_+:+<+V.V.W.[+}+|+  ",
"          1+2+++@+#+#+@+3+(+4+5+6+G.G.7+8+9+    ",
"          0+a+b+c+P.d+e+f+~+g+~+h+&+i+j+k+      ",
"            l+m+n+B.o+S.&+p+h+p+&+q+.+r+        ",
"              s+t+u+v+w+x+y+z+A+B+C+D+          ",
"                  E+F+G+H+I+J+K+L+              "};
