/* XPM */
static char * term_xpm[] = {
"24 24 5 1",
" 	c None",
".	c #938B8B",
"+	c #071108",
"@	c #110707",
"#	c #FFFFFF",
"                        ",
"........................",
".+@@@@@@@@@@@@@@@@@@@@@.",
".+#++++++++++++++++++++.",
".++##++++++++++++++++++.",
".+#+++#++++++++++++++++.",
".++++++++++++++++++++++.",
".++++++++++++++++++++++.",
".++++++++++++++++++++++.",
".++++++++++++++++++++++.",
".++++++++++++++++++++++.",
".++++++++++++++++++++++.",
".++++++++++++++++++++++.",
".++++++++++++++++++++++.",
".++++++++++++++++++++++.",
".++++++++++++++++++++++.",
".++++++++++++++++++++++.",
".++++++++++++++++++++++.",
".++++++++++++++++++++++.",
".++++++++++++++++++++++.",
".++++++++++++++++++++++.",
".@@@@@@@@@@@@@@@@@@@@@@.",
"........................",
"                        "};
