/* XPM */
static char * terminal_xpm[] = {
"28 28 170 2",
"  	c None",
". 	c #B5B6B7",
"+ 	c #AAABAB",
"@ 	c #7F7F7F",
"# 	c #979898",
"$ 	c #B9BABB",
"% 	c #BFC0C1",
"& 	c #C1C1C2",
"* 	c #B2B3B4",
"= 	c #A1A2A2",
"- 	c #8C8C8D",
"; 	c #BEBFC0",
"> 	c #575758",
", 	c #555555",
"' 	c #545454",
") 	c #525252",
"! 	c #515151",
"~ 	c #4F4F4F",
"{ 	c #4D4D4D",
"] 	c #4C4C4C",
"^ 	c #4B4A4A",
"/ 	c #484848",
"( 	c #464646",
"_ 	c #444444",
": 	c #434343",
"< 	c #424242",
"[ 	c #404040",
"} 	c #3F3F3F",
"| 	c #3D3D3D",
"1 	c #3C3C3C",
"2 	c #3B3B3B",
"3 	c #3A3A3A",
"4 	c #393939",
"5 	c #131313",
"6 	c #5A5A5A",
"7 	c #C2C2C3",
"8 	c #59595A",
"9 	c #606060",
"0 	c #5B5B5B",
"a 	c #595959",
"b 	c #575757",
"c 	c #535353",
"d 	c #4E4E4E",
"e 	c #4B4B4B",
"f 	c #494949",
"g 	c #141414",
"h 	c #000000",
"i 	c #C4C5C6",
"j 	c #5C5C5C",
"k 	c #A8A8A8",
"l 	c #A6A6A6",
"m 	c #666666",
"n 	c #505050",
"o 	c #4A4A4A",
"p 	c #474747",
"q 	c #2A2A2A",
"r 	c #010101",
"s 	c #C8C8C9",
"t 	c #5E5E5E",
"u 	c #565656",
"v 	c #858585",
"w 	c #D0D0D0",
"x 	c #B2B2B2",
"y 	c #414141",
"z 	c #3E3E3E",
"A 	c #373737",
"B 	c #101010",
"C 	c #CBCBCC",
"D 	c #606061",
"E 	c #A2A2A2",
"F 	c #D1D1D1",
"G 	c #A0A0A0",
"H 	c #252525",
"I 	c #050505",
"J 	c #8C8C8C",
"K 	c #CECECF",
"L 	c #626263",
"M 	c #9A9A9A",
"N 	c #9D9D9D",
"O 	c #363636",
"P 	c #353535",
"Q 	c #303030",
"R 	c #161616",
"S 	c #ABABAC",
"T 	c #D1D2D2",
"U 	c #646464",
"V 	c #BFBFBF",
"W 	c #333333",
"X 	c #313131",
"Y 	c #B2B3B3",
"Z 	c #D4D5D5",
"` 	c #676767",
" .	c #383838",
"..	c #343434",
"+.	c #1B1B1B",
"@.	c #0D0D0D",
"#.	c #0C0C0C",
"$.	c #0B0B0B",
"%.	c #090909",
"&.	c #080808",
"*.	c #040404",
"=.	c #585959",
"-.	c #C3C5C5",
";.	c #D8D8D9",
">.	c #696969",
",.	c #1C1C1C",
"'.	c #171717",
").	c #181818",
"!.	c #121212",
"~.	c #0E0E0E",
"{.	c #070707",
"].	c #020202",
"^.	c #585859",
"/.	c #C1C3C3",
"(.	c #DBDBDB",
"_.	c #6B6B6B",
":.	c #2F2F2F",
"<.	c #212121",
"[.	c #222222",
"}.	c #202020",
"|.	c #1F1F1F",
"1.	c #1D1D1D",
"2.	c #151515",
"3.	c #DEDEDE",
"4.	c #6E6E6E",
"5.	c #2D2D2D",
"6.	c #2B2B2B",
"7.	c #2C2C2C",
"8.	c #292929",
"9.	c #282828",
"0.	c #BDBEBF",
"a.	c #6F6F6F",
"b.	c #323232",
"c.	c #BABCBC",
"d.	c #DBDCDC",
"e.	c #707070",
"f.	c #5B5C5C",
"g.	c #B9BABA",
"h.	c #D9D9D9",
"i.	c #727272",
"j.	c #454545",
"k.	c #5E5E5F",
"l.	c #B6B8B9",
"m.	c #D6D7D7",
"n.	c #757575",
"o.	c #585858",
"p.	c #616161",
"q.	c #B4B5B6",
"r.	c #8D8E8E",
"s.	c #6A6A6A",
"t.	c #717171",
"u.	c #747474",
"v.	c #767676",
"w.	c #797979",
"x.	c #7B7B7B",
"y.	c #7C7C7C",
"z.	c #7E7E7E",
"A.	c #7D7D7D",
"B.	c #787878",
"C.	c #737373",
"D.	c #6D6D6D",
"E.	c #686868",
"F.	c #B1B2B3",
"G.	c #B4B4B4",
"H.	c #8F8F8F",
"I.	c #B3B4B5",
"J.	c #B8B9BA",
"K.	c #B8B9B9",
"L.	c #B7B8B8",
"M.	c #B6B7B7",
"                                                        ",
"                                                        ",
"                                                        ",
"  . + @ @ @ @ @ @ @ @ @ @ @ @ @ @ @ @ @ @ @ @ @ @ @ #   ",
"  $ % & * = - @ @ @ @ @ @ @ @ @ @ @ @ @ @ @ @ @ @ @ @   ",
"  ; > , ' ) ! ~ { ] ^ / / ( _ : < [ } | 1 2 3 4 5 6 @   ",
"  7 8 9 6 0 0 6 a b , ' c ! ~ d ] e f / ( ( 3 g h 6 @   ",
"  i j c k l m d ) n ~ { ] o f p ( _ : < } q h r h 6 @   ",
"  s t ) u v w x { o / p ( _ < y } z | A B r r r r 6 @   ",
"  C D ] ! E F G p : < y } z 1 2 4 4 H I r r r r r 6 J   ",
"  K L [ M N / 2 } / | 3 4 A O P Q R h r r r r r r a S   ",
"  T U } 1 1 2 3 } V A P W W X H I r r r r r r r r 8 Y   ",
"  Z `  .4 A O O A A A O O ..+.@.#.$.%.&.I *.r r h =.-.  ",
"  ;.>.W O A  .4 4 4 4 3 X ,.'.).'.R g !.B ~.$.{.].^./.  ",
"  (._... .4 2 1 | | 1 :.<.[.[.[.<.}.|.1.+.).2.!.$.=.%   ",
"  3.4.O 3 1 z } [ | 5.6.7.5.5.5.7.6.8.9.H [.|.,.R a 0.  ",
"  3.a.4 z [ y < 3 W P O A  . . .A P ..b.Q 7.8.H |.6 c.  ",
"  d.e.1 y _ _ 1 3 z [ y < < : : y [ z 1 3 O W Q 8.f.g.  ",
"  h.i.} j.: } < j./ o ] { { { { ] e f ( : y | 4 W k.l.  ",
"  m.n.: < _ f ] ~ ) ' u b o.o.b b , c n d o ( : 1 p.q.  ",
"  Z r.U s.4.t.u.v.w.x.y.z.z.z.z.A.y.x.B.v.C.e.D.E.x.*   ",
"  T @ @ @ @ @ @ @ @ @ @ @ @ @ @ @ @ @ @ @ @ @ @ @ @ F.  ",
"  G.@ @ @ @ @ @ @ @ @ @ @ @ @ @ @ @ @ @ @ @ H.I.@ @ J.  ",
"  g.g.g.K.K.L.L.L.L.L.L.L.L.M.M.M.M.M.M.M.M.L.L.L.L.I.  ",
"                                                        ",
"                                                        ",
"                                                        ",
"                                                        "};
