/* XPM */
static char * web_xpm[] = {
"24 24 443 2",
"  	c None",
". 	c #5E7C98",
"+ 	c #567395",
"@ 	c #526B8B",
"# 	c #5C728B",
"$ 	c #5C7995",
"% 	c #65869D",
"& 	c #5D7D94",
"* 	c #60768A",
"= 	c #7B8B8F",
"- 	c #486A8C",
"; 	c #305781",
"> 	c #38546D",
", 	c #485B63",
"' 	c #525F55",
") 	c #586661",
"! 	c #4C687A",
"~ 	c #3A648D",
"{ 	c #556D6B",
"] 	c #50643E",
"^ 	c #41668A",
"/ 	c #59716F",
"( 	c #626D4D",
"_ 	c #576459",
": 	c #536153",
"< 	c #515F47",
"[ 	c #576245",
"} 	c #586243",
"| 	c #606748",
"1 	c #5F674E",
"2 	c #475958",
"3 	c #425E76",
"4 	c #4C6D76",
"5 	c #4D6F61",
"6 	c #3B3A37",
"7 	c #1B3057",
"8 	c #315579",
"9 	c #677770",
"0 	c #656D48",
"a 	c #5C633E",
"b 	c #5A6240",
"c 	c #545D37",
"d 	c #525C37",
"e 	c #545E3E",
"f 	c #4F5A38",
"g 	c #5B6342",
"h 	c #4D5B46",
"i 	c #445F73",
"j 	c #366794",
"k 	c #41738A",
"l 	c #5F7753",
"m 	c #697844",
"n 	c #141D41",
"o 	c #052457",
"p 	c #28476E",
"q 	c #5A6B5C",
"r 	c #586435",
"s 	c #596037",
"t 	c #62694F",
"u 	c #515F4F",
"v 	c #4D5936",
"w 	c #515A33",
"x 	c #4B5736",
"y 	c #525E4B",
"z 	c #455652",
"A 	c #30537B",
"B 	c #25558D",
"C 	c #366889",
"D 	c #577872",
"E 	c #667C5F",
"F 	c #171E3F",
"G 	c #021A4A",
"H 	c #093066",
"I 	c #345575",
"J 	c #627152",
"K 	c #6F7549",
"L 	c #636C3D",
"M 	c #59633D",
"N 	c #546153",
"O 	c #4E5A41",
"P 	c #525B30",
"Q 	c #535E40",
"R 	c #3D586C",
"S 	c #29476E",
"T 	c #1C447A",
"U 	c #12407A",
"V 	c #113B73",
"W 	c #2D4C6E",
"X 	c #566C69",
"Y 	c #466783",
"Z 	c #2C2F3F",
"` 	c #031343",
" .	c #041D4E",
"..	c #123C70",
"+.	c #5D6B6E",
"@.	c #7B7C52",
"#.	c #8E8A5D",
"$.	c #7F8252",
"%.	c #556532",
"&.	c #4F5C2E",
"*.	c #515E2D",
"=.	c #4E5C2D",
"-.	c #4B6153",
";.	c #416A84",
">.	c #245E97",
",.	c #0F376D",
"'.	c #103D77",
").	c #13447F",
"!.	c #16315F",
"~.	c #55605F",
"{.	c #697060",
"].	c #878060",
"^.	c #172246",
"/.	c #011545",
"(.	c #021747",
"_.	c #314261",
":.	c #948D73",
"<.	c #9F9571",
"[.	c #9D936C",
"}.	c #87885A",
"|.	c #657543",
"1.	c #4E623B",
"2.	c #4D6830",
"3.	c #4B6D4B",
"4.	c #3F6B7F",
"5.	c #2C5F8D",
"6.	c #215890",
"7.	c #0A2C60",
"8.	c #0D346D",
"9.	c #1C518D",
"0.	c #0E3469",
"a.	c #2E435D",
"b.	c #64674C",
"c.	c #7F7752",
"d.	c #343A4D",
"e.	c #061D4C",
"f.	c #031F50",
"g.	c #042459",
"h.	c #3B4C6D",
"i.	c #A69880",
"j.	c #A99976",
"k.	c #A1946C",
"l.	c #808450",
"m.	c #6A7D42",
"n.	c #637A41",
"o.	c #527348",
"p.	c #376684",
"q.	c #1A477B",
"r.	c #052151",
"s.	c #05204F",
"t.	c #041E4F",
"u.	c #0F376F",
"v.	c #194D8A",
"w.	c #0C3063",
"x.	c #21365A",
"y.	c #5E6352",
"z.	c #79744E",
"A.	c #91895D",
"B.	c #2B2E40",
"C.	c #021646",
"D.	c #021D4F",
"E.	c #05285E",
"F.	c #204475",
"G.	c #918F8B",
"H.	c #B49F7D",
"I.	c #A3966B",
"J.	c #6B7A3D",
"K.	c #5C7632",
"L.	c #577534",
"M.	c #4A6C6A",
"N.	c #133767",
"O.	c #031C4C",
"P.	c #021746",
"Q.	c #052154",
"R.	c #123F79",
"S.	c #0D3870",
"T.	c #072354",
"U.	c #1C2F53",
"V.	c #606554",
"W.	c #78724B",
"X.	c #908762",
"Y.	c #272B3E",
"Z.	c #011443",
"`.	c #01194A",
" +	c #07295F",
".+	c #163A71",
"++	c #6C7887",
"@+	c #A59878",
"#+	c #8E8F6A",
"$+	c #4E7172",
"%+	c #456D72",
"&+	c #507374",
"*+	c #2B5985",
"=+	c #031C4A",
"-+	c #021848",
";+	c #021847",
">+	c #062253",
",+	c #103972",
"'+	c #042050",
")+	c #011444",
"!+	c #112651",
"~+	c #5D645E",
"{+	c #867C56",
"]+	c #858058",
"^+	c #061843",
"/+	c #021B4D",
"(+	c #072D64",
"_+	c #0D3973",
":+	c #335684",
"<+	c #878471",
"[+	c #768074",
"}+	c #21548B",
"|+	c #225994",
"1+	c #3E6F94",
"2+	c #2B6184",
"3+	c #061F4D",
"4+	c #021441",
"5+	c #021342",
"6+	c #011343",
"7+	c #0C356B",
"8+	c #021948",
"9+	c #021748",
"0+	c #0F3063",
"a+	c #485767",
"b+	c #827E55",
"c+	c #6D794E",
"d+	c #051A49",
"e+	c #021A4D",
"f+	c #011D50",
"g+	c #062B61",
"h+	c #0C3971",
"i+	c #15427C",
"j+	c #53646C",
"k+	c #627663",
"l+	c #3E6B7F",
"m+	c #346179",
"n+	c #2F567D",
"o+	c #396582",
"p+	c #2F516E",
"q+	c #193255",
"r+	c #0C2450",
"s+	c #021544",
"t+	c #052253",
"u+	c #0C366D",
"v+	c #031B4B",
"w+	c #011544",
"x+	c #072050",
"y+	c #243F65",
"z+	c #4D685F",
"A+	c #405E61",
"B+	c #313850",
"C+	c #05275D",
"D+	c #04255A",
"E+	c #062C62",
"F+	c #0B346D",
"G+	c #113E7A",
"H+	c #19457E",
"I+	c #334F6B",
"J+	c #48685D",
"K+	c #46665D",
"L+	c #2C608D",
"M+	c #1F5186",
"N+	c #284B74",
"O+	c #1B3E6A",
"P+	c #1F4B81",
"Q+	c #082655",
"R+	c #0C3469",
"S+	c #082A5C",
"T+	c #041D4F",
"U+	c #031D4E",
"V+	c #082B5D",
"W+	c #12325A",
"X+	c #1B3154",
"Y+	c #28314D",
"Z+	c #06275E",
"`+	c #05255C",
" @	c #062C63",
".@	c #0B346C",
"+@	c #0F3D78",
"@@	c #13437E",
"#@	c #0D3A74",
"$@	c #194075",
"%@	c #3A5F72",
"&@	c #326281",
"*@	c #2E5979",
"=@	c #4E6D71",
"-@	c #4D696F",
";@	c #426981",
">@	c #205081",
",@	c #103567",
"'@	c #06295D",
")@	c #082E63",
"!@	c #0D366E",
"~@	c #0F3870",
"{@	c #092D63",
"]@	c #0A2D61",
"^@	c #202D51",
"/@	c #363B49",
"(@	c #06285C",
"_@	c #03235A",
":@	c #0D3C75",
"<@	c #12437E",
"[@	c #13427D",
"}@	c #144783",
"|@	c #1C518B",
"1@	c #275884",
"2@	c #46675E",
"3@	c #5F7338",
"4@	c #607035",
"5@	c #536832",
"6@	c #41655A",
"7@	c #3A6172",
"8@	c #285384",
"9@	c #0A336B",
"0@	c #0A3167",
"a@	c #0C3065",
"b@	c #082659",
"c@	c #0E3770",
"d@	c #303850",
"e@	c #213A66",
"f@	c #062A62",
"g@	c #052D65",
"h@	c #09336B",
"i@	c #0F3E78",
"j@	c #1B508E",
"k@	c #2C5683",
"l@	c #4F684C",
"m@	c #4E6428",
"n@	c #425C1D",
"o@	c #455E1E",
"p@	c #49612A",
"q@	c #4A6B62",
"r@	c #42626C",
"s@	c #304E69",
"t@	c #031C4D",
"u@	c #062556",
"v@	c #1E3D6E",
"w@	c #2F3F60",
"x@	c #0E3771",
"y@	c #113E78",
"z@	c #0D3872",
"A@	c #0E3B75",
"B@	c #466178",
"C@	c #4F6434",
"D@	c #415B1D",
"E@	c #3E5A1A",
"F@	c #405D1D",
"G@	c #4B6425",
"H@	c #646E37",
"I@	c #6D7041",
"J@	c #425453",
"K@	c #021745",
"L@	c #0A2C5F",
"M@	c #2D4066",
"N@	c #1C3868",
"O@	c #103C77",
"P@	c #144481",
"Q@	c #0A316B",
"R@	c #0C3770",
"S@	c #09346D",
"T@	c #30456B",
"U@	c #5B685D",
"V@	c #485E23",
"W@	c #455E21",
"X@	c #4A6126",
"Y@	c #53662D",
"Z@	c #606B35",
"`@	c #747143",
" #	c #5C6553",
".#	c #15325D",
"+#	c #16305F",
"@#	c #3B4357",
"##	c #173B71",
"$#	c #134381",
"%#	c #103E7A",
"&#	c #0B346F",
"*#	c #0B336C",
"=#	c #073068",
"-#	c #04275E",
";#	c #06265B",
">#	c #4A576F",
",#	c #787661",
"'#	c #737348",
")#	c #5B6932",
"!#	c #666E3A",
"~#	c #757443",
"{#	c #6D714B",
"]#	c #3D586B",
"^#	c #062657",
"/#	c #0D2656",
"(#	c #32405E",
"_#	c #313D5A",
":#	c #183C73",
"<#	c #154581",
"[#	c #12407B",
"}#	c #0F3A73",
"|#	c #0C366F",
"1#	c #0B326B",
"2#	c #0E346D",
"3#	c #072A60",
"4#	c #666572",
"5#	c #9F9070",
"6#	c #686D3B",
"7#	c #656F38",
"8#	c #606E58",
"9#	c #3B5C7B",
"0#	c #184176",
"a#	c #123265",
"b#	c #3A465E",
"c#	c #1E3E70",
"d#	c #134480",
"e#	c #103D78",
"f#	c #0F3B76",
"g#	c #0D366F",
"h#	c #092F67",
"i#	c #6D6B70",
"j#	c #938462",
"k#	c #79764B",
"l#	c #5F6D5A",
"m#	c #344F6D",
"n#	c #092D62",
"o#	c #183263",
"p#	c #36435F",
"q#	c #324B72",
"r#	c #1F3F72",
"s#	c #0D3670",
"t#	c #0F3873",
"u#	c #0E3872",
"v#	c #163C70",
"w#	c #73756C",
"x#	c #7F7C6A",
"y#	c #5E6D77",
"z#	c #294567",
"A#	c #19264C",
"B#	c #232842",
"C#	c #2E3A57",
"D#	c #283456",
"E#	c #19305E",
"F#	c #2C4975",
"G#	c #687378",
"H#	c #47688C",
"I#	c #2D5581",
"J#	c #2E3E5C",
"                  . + @ # $ % &                 ",
"            * = - ; > , ' ) ! ~ { ]             ",
"          ^ / ( _ : < [ } | 1 2 3 4 5           ",
"      6 7 8 9 0 a b c d e f g h i j k l m       ",
"      n o p q r s t u v w x y z A B C D E       ",
"    F G H I J K L M N O P Q R S T U V W X Y     ",
"  Z `  ...+.@.#.$.%.&.*.=.-.;.>.,.'.).!.~.{.].  ",
"  ^./.(._.:.<.[.}.|.1.2.3.4.5.6.7.8.9.0.a.b.c.  ",
"d.e.f.g.h.i.j.k.l.m.n.o.p.q.r.s.t.u.v.w.x.y.z.A.",
"B.C.D.E.F.G.H.I.J.K.L.M.N.O.G P.Q.R.S.T.U.V.W.X.",
"Y.Z.`. +.+++@+#+$+%+&+*+=+-+;+Z.>+,+'+)+!+~+{+]+",
"^+(./+(+_+:+<+[+}+|+1+2+3+4+5+6+>+7+8+9+0+a+b+c+",
"d+e+f+g+h+i+j+k+l+m+n+o+p+q+r+s+t+u+v+w+x+y+z+A+",
"B+C+D+E+F+G+H+I+J+K+L+M+N+O+P+Q+t.R+S+T+U+V+W+X+",
"Y+Z+`+ @.@+@@@#@$@%@&@*@=@-@;@>@,@'@)@!@~@{@]@^@",
"/@(@_@ @.@:@<@[@}@|@1@2@3@4@5@6@7@8@9@0@a@b@c@d@",
"  e@f@g@h@i@<@).9.j@k@l@m@n@o@o@p@q@r@s@t@u@v@  ",
"  w@.@x@y@[@z@z@A@U B@C@D@E@E@F@G@H@I@J@K@L@M@  ",
"    N@O@P@G+Q@R@S@ @T@U@V@W@X@Y@Z@`@ #.#-++#    ",
"    @###$#%#&#*#=#-#;#>#,#'#)#!#~#{#]#^#/#(#    ",
"      _#:#<#[#}#|#1#2#3#4#5#6#7#8#9#0#a#b#      ",
"          c#d#O@e#f#g#h#i#j#k#l#m#n#o#p#        ",
"            q#r#s#t#u#v#w#x#y#z#A#B#            ",
"                C#D#E#F#G#H#I#J#                "};
